<?xml version="1.0" encoding="UTF-8"?>
<svg width="590px" height="590px" viewBox="0 0 590 590" version="1.1" xmlns="http://www.w3.org/2000/svg" xmlns:xlink="http://www.w3.org/1999/xlink">
    <title>Shadow</title>
    <g id="Shadow" stroke="none" stroke-width="1" fill="none" fill-rule="evenodd">
        <path d="M276.386246,95.0001305 C355.475068,95.01305 468,96.305 468,225.5 C468,299.948955 430.634176,331.92552 383.832833,345.659772 C392.698945,318.913339 400.366154,305.62688 406.833595,305.798405 C355.316527,204.367736 329.557994,153.652402 329.557994,153.652402 L332.924306,280.692801 C335.974724,281.839017 338.87212,283.580872 341.349772,286.058524 C350.224985,294.933737 350.598089,309.001088 342.180746,317.418431 C333.763402,325.835775 319.696409,325.463028 310.820838,316.587457 C301.945625,307.712244 301.572521,293.644894 309.989865,285.22755 C312.3396,282.877814 315.148692,281.28717 318.142609,280.301116 L314.776296,153.260717 L314.748569,153.320022 C313.842818,155.257319 290.74646,204.658103 245.459496,301.522373 C255.383153,301.785305 276,331.608373 276,361.02826 L276,438.876761 C276,439.271807 276,439.667909 276,440.065067 L276,495 L122,495 L122,95 L276.386246,95.0001305 Z" id="Combined-Shape" fill="#17A2B8"></path>
        <path d="M245.583435,301.528471 L245.459496,301.522373 C255.383153,301.785305 276,331.608373 276,361.02826 L276,464.733322 C274.15471,413.64477 269.15021,379.191904 260.986499,361.374724 C252.822788,343.557545 243.536767,332.648178 233.128435,328.646623 L245.583435,301.528471 Z M256.955458,276.769471 L256.99879,276.840982 C255.594598,279.844407 254.164812,282.902577 252.70943,286.015492 L256.955458,276.769471 Z" id="Combined-Shape" fill="#006170"></path>
    </g>
</svg>